<?xml version="1.0" encoding="iso-8859-1"?>
<!-- Generator: Adobe Illustrator 19.0.0, SVG Export Plug-In . SVG Version: 6.00 Build 0)  -->
<svg version="1.1" id="Layer_1" xmlns="http://www.w3.org/2000/svg" xmlns:xlink="http://www.w3.org/1999/xlink" x="0px" y="0px"
	 viewBox="0 0 511.999 511.999" style="enable-background:new 0 0 511.999 511.999;" xml:space="preserve">
<g>
	<path style="fill:#00A8E1;" d="M159.498,112.492v242.484c-14.597-3.372-31.195-3.986-48.801-1.243
		c-58.334,9.086-105.62,51.491-105.62,94.718c0,43.23,47.287,70.907,105.62,61.822c58.335-9.086,105.62-51.493,105.62-94.72v-311.91
		L159.498,112.492z"/>
	<path style="fill:#00A8E1;" d="M450.101,67.234v242.482c-14.597-3.371-31.194-3.985-48.799-1.241
		c-58.335,9.086-105.62,51.491-105.62,94.72c0,43.228,47.286,70.904,105.62,61.82c58.334-9.086,105.62-51.491,105.62-94.72V58.383
		L450.101,67.234z"/>
</g>
<path style="fill:#0071CE;" d="M506.923,89.471l-347.424,54.11V70.193c0-10.312,8.337-20.048,18.526-21.636L488.395,0.221
	c10.19-1.588,18.527,5.552,18.527,15.864v73.386H506.923z"/>
<g>
</g>
<g>
</g>
<g>
</g>
<g>
</g>
<g>
</g>
<g>
</g>
<g>
</g>
<g>
</g>
<g>
</g>
<g>
</g>
<g>
</g>
<g>
</g>
<g>
</g>
<g>
</g>
<g>
</g>
</svg>
